<svg width="34" height="34" viewBox="0 0 34 34" fill="none" xmlns="http://www.w3.org/2000/svg">
<g clip-path="url(#clip0_2982_4012)">
<path d="M3.22266 10.102C3.22266 9.24615 3.75315 8.46492 4.52325 8.18835L27.5445 -0.0638508C28.3674 -0.359391 29.2227 0.283928 29.2227 1.19851V15.664C29.2227 17.0706 28.3836 18.3258 27.1253 18.802L5.7691 26.8824C4.52942 27.3515 3.22266 26.3853 3.22266 24.9997V10.102Z" fill="#3423D0"/>
<path d="M3.22266 13.4204L29.2227 3.66167V7.01505L3.22266 16.7738V13.4204Z" fill="#1E0B7C"/>
<path d="M3.22266 10.102C3.22266 8.69562 4.58266 7.70045 5.80697 8.2138L12.6809 10.9894L19.5548 13.7651C20.4126 14.1115 20.9788 14.978 20.9788 15.9444V30.5331C20.9788 32.1938 19.3766 33.3234 17.916 32.6924L4.40232 26.855C3.68864 26.5467 3.22266 25.8156 3.22266 25.0041V10.102Z" fill="#472EFF" fill-opacity="0.6"/>
<path d="M3.22266 13.4204L29.2227 3.66167V7.01505L3.22266 16.7738V13.4204Z" fill="#1E0B7C"/>
</g>
<defs>
<clipPath id="clip0_2982_4012">
<rect width="33" height="33" fill="white" transform="translate(0.658203 0.232422)"/>
</clipPath>
</defs>
</svg>
