<svg width="28" height="29" viewBox="0 0 28 29" fill="none" xmlns="http://www.w3.org/2000/svg">
<g clip-path="url(#clip0_2982_4167)">
<path d="M22.7402 0.293457C24.1864 0.293457 25.423 0.806912 26.4499 1.83382C27.4768 2.86073 27.9902 4.09728 27.9902 5.54346V23.0435C27.9902 24.4896 27.4768 25.7262 26.4499 26.7531C25.423 27.78 24.1864 28.2935 22.7402 28.2935H19.3132V17.4471H22.9408L23.4876 13.2179H19.3132V10.52C19.3132 9.83946 19.4559 9.32905 19.7415 8.98877C20.0271 8.64849 20.5831 8.47835 21.4095 8.47835L23.6335 8.46012V4.68669C22.8678 4.57731 21.7862 4.52262 20.3887 4.52262C18.7359 4.52262 17.4143 5.00873 16.4238 5.98096C15.4334 6.95318 14.9382 8.32644 14.9382 10.1007V13.2179H11.2923V17.4471H14.9382V28.2935H5.24023C3.79405 28.2935 2.55751 27.78 1.5306 26.7531C0.503689 25.7262 -0.00976562 24.4896 -0.00976562 23.0435V5.54346C-0.00976562 4.09728 0.503689 2.86073 1.5306 1.83382C2.55751 0.806912 3.79405 0.293457 5.24023 0.293457H22.7402Z" fill="#FFFEFE"/>
</g>
<defs>
<clipPath id="clip0_2982_4167">
<rect width="28" height="28" fill="white" transform="translate(0 0.293457)"/>
</clipPath>
</defs>
</svg>
