<svg width="28" height="29" viewBox="0 0 28 29" fill="none" xmlns="http://www.w3.org/2000/svg">
<g clip-path="url(#clip0_2982_4169)">
<path d="M23.4973 28.0429H4.68924C2.20585 28.0429 0.185547 26.0269 0.185547 23.5485V4.78782C0.185547 2.30946 2.20585 0.293457 4.68924 0.293457H23.4973C25.98 0.293457 28.0003 2.30946 28.0003 4.78782V23.5493C28.0003 26.0276 25.98 28.0429 23.4973 28.0429ZM9.58421 23.2341H9.58996V11.2644H5.86596V23.2341H9.58421ZM7.72544 9.62966C8.00859 9.63004 8.28902 9.57455 8.55068 9.46637C8.81234 9.35819 9.05009 9.19945 9.2503 8.99924C9.45051 8.79903 9.60926 8.56128 9.71743 8.29962C9.82561 8.03796 9.8811 7.75752 9.88073 7.47438C9.87959 6.90311 9.65215 6.35557 9.2482 5.95162C8.84425 5.54768 8.29671 5.32024 7.72544 5.3191C7.15389 5.31929 6.60579 5.54642 6.20164 5.95058C5.79749 6.35473 5.57035 6.90282 5.57016 7.47438C5.57035 8.04594 5.79749 8.59403 6.20164 8.99819C6.60579 9.40234 7.15389 9.62947 7.72544 9.62966ZM23.5189 23.2348V16.6727C23.5189 13.4484 22.8189 10.9679 19.0568 10.9679C17.2483 10.9679 16.0343 11.9587 15.5353 12.8992H15.485V11.2644H11.919V23.2341H15.6365V17.311C15.6365 15.7487 15.933 14.2375 17.8693 14.2375C19.7733 14.2375 19.8013 16.0237 19.8013 17.4115V23.2341L23.5189 23.2348Z" fill="#FFFEFE"/>
<rect x="0.0820312" y="0.375488" width="28" height="28" fill="white"/>
<g clip-path="url(#clip1_2982_4169)">
<path d="M17.5625 4.87549H10.4375C8.86278 4.87549 7.35255 5.50104 6.23905 6.61454C5.12556 7.72804 4.5 9.23827 4.5 10.813L4.5 17.938C4.5 19.5127 5.12556 21.0229 6.23905 22.1364C7.35255 23.2499 8.86278 23.8755 10.4375 23.8755H17.5625C19.1372 23.8755 20.6474 23.2499 21.7609 22.1364C22.8744 21.0229 23.5 19.5127 23.5 17.938V10.813C23.5 9.23827 22.8744 7.72804 21.7609 6.61454C20.6474 5.50104 19.1372 4.87549 17.5625 4.87549ZM21.7188 17.938C21.7188 20.2299 19.8544 22.0942 17.5625 22.0942H10.4375C8.14563 22.0942 6.28125 20.2299 6.28125 17.938V10.813C6.28125 8.52111 8.14563 6.65674 10.4375 6.65674H17.5625C19.8544 6.65674 21.7188 8.52111 21.7188 10.813V17.938Z" fill="#232426"/>
<path d="M14 9.62549C12.7402 9.62549 11.532 10.1259 10.6412 11.0167C9.75044 11.9075 9.25 13.1157 9.25 14.3755C9.25 15.6353 9.75044 16.8434 10.6412 17.7342C11.532 18.625 12.7402 19.1255 14 19.1255C15.2598 19.1255 16.468 18.625 17.3588 17.7342C18.2496 16.8434 18.75 15.6353 18.75 14.3755C18.75 13.1157 18.2496 11.9075 17.3588 11.0167C16.468 10.1259 15.2598 9.62549 14 9.62549ZM14 17.3442C13.2129 17.3433 12.4584 17.0302 11.9018 16.4737C11.3453 15.9171 11.0322 15.1626 11.0312 14.3755C11.0312 12.7379 12.3636 11.4067 14 11.4067C15.6364 11.4067 16.9688 12.7379 16.9688 14.3755C16.9688 16.0119 15.6364 17.3442 14 17.3442Z" fill="#232426"/>
<path d="M19.1075 9.90211C19.4571 9.90211 19.7405 9.61873 19.7405 9.26917C19.7405 8.91961 19.4571 8.63623 19.1075 8.63623C18.758 8.63623 18.4746 8.91961 18.4746 9.26917C18.4746 9.61873 18.758 9.90211 19.1075 9.90211Z" fill="#232426"/>
</g>
</g>
<defs>
<clipPath id="clip0_2982_4169">
<rect y="0.293457" width="28" height="28" rx="5" fill="white"/>
</clipPath>
<clipPath id="clip1_2982_4169">
<rect width="19" height="19" fill="white" transform="translate(4.5 4.87549)"/>
</clipPath>
</defs>
</svg>
