<svg width="28" height="29" viewBox="0 0 28 29" fill="none" xmlns="http://www.w3.org/2000/svg">
<g clip-path="url(#clip0_2982_4176)">
<path d="M23.4973 28.0429H4.68924C2.20585 28.0429 0.185547 26.0269 0.185547 23.5485V4.78782C0.185547 2.30946 2.20585 0.293457 4.68924 0.293457H23.4973C25.98 0.293457 28.0003 2.30946 28.0003 4.78782V23.5493C28.0003 26.0276 25.98 28.0429 23.4973 28.0429ZM9.58421 23.2341H9.58996V11.2644H5.86596V23.2341H9.5835H9.58421ZM7.72544 9.62966C8.00859 9.63004 8.28902 9.57455 8.55068 9.46637C8.81234 9.35819 9.05009 9.19945 9.2503 8.99924C9.45051 8.79903 9.60926 8.56128 9.71743 8.29962C9.82561 8.03796 9.8811 7.75752 9.88073 7.47438C9.87959 6.90311 9.65215 6.35557 9.2482 5.95162C8.84425 5.54768 8.29671 5.32024 7.72544 5.3191C7.15389 5.31929 6.60579 5.54642 6.20164 5.95058C5.79749 6.35473 5.57035 6.90282 5.57016 7.47438C5.57035 8.04594 5.79749 8.59403 6.20164 8.99819C6.60579 9.40234 7.15389 9.62947 7.72544 9.62966ZM23.5189 23.2348V16.6727C23.5189 13.4484 22.8189 10.9679 19.0568 10.9679C17.2483 10.9679 16.0343 11.9587 15.5353 12.8992H15.485V11.2644H11.919V23.2341H15.6365V17.311C15.6365 15.7487 15.933 14.2375 17.8693 14.2375C19.7733 14.2375 19.8013 16.0237 19.8013 17.4115V23.2341H23.5189V23.2348Z" fill="#FFFEFE"/>
</g>
<defs>
<clipPath id="clip0_2982_4176">
<rect width="28" height="28" fill="white" transform="translate(0 0.293457)"/>
</clipPath>
</defs>
</svg>
