<svg width="28" height="29" viewBox="0 0 28 29" fill="none" xmlns="http://www.w3.org/2000/svg">
<g clip-path="url(#clip0_2982_4178)">
<path fill-rule="evenodd" clip-rule="evenodd" d="M5.96377 0.316895H22.0206C25.3186 0.316895 27.9922 2.99046 27.9922 6.28848V22.3453C27.9922 25.6433 25.3186 28.3169 22.0206 28.3169H5.96377C2.66576 28.3169 -0.0078125 25.6433 -0.0078125 22.3453V6.28848C-0.0078125 2.99046 2.66576 0.316895 5.96377 0.316895ZM20.5772 10.5995C21.2439 10.5206 21.8951 10.3422 22.509 10.0704H22.5131C22.0619 10.7431 21.4877 11.3378 20.8315 11.8094C20.8397 11.9571 20.8397 12.1006 20.8397 12.2442C20.8397 16.6942 17.4561 21.8209 11.263 21.8209C9.36 21.8209 7.59231 21.2672 6.10352 20.3116C6.98502 20.4183 7.87892 20.35 8.73401 20.1107C9.5891 19.8714 10.3886 19.4658 11.0867 18.9171C10.3848 18.903 9.70482 18.6702 9.14162 18.2511C8.57842 17.832 8.1601 17.2476 7.94503 16.5793C8.44859 16.6766 8.96776 16.6569 9.46253 16.5219C7.92452 16.2143 6.76383 14.8526 6.76383 13.2203V13.1793C7.2313 13.4401 7.75451 13.585 8.28954 13.6017C7.57543 13.1266 7.06985 12.3966 6.8762 11.561C6.68255 10.7254 6.81548 9.84743 7.2478 9.10663C8.09292 10.1458 9.14707 10.9958 10.3419 11.6013C11.5367 12.2068 12.8454 12.5544 14.1832 12.6215C14.1252 12.37 14.0963 12.1127 14.0971 11.8545C14.0954 11.1785 14.2974 10.5176 14.6769 9.95817C15.0564 9.39869 15.5957 8.96656 16.2245 8.71816C16.8532 8.46976 17.5422 8.41662 18.2016 8.56566C18.861 8.7147 19.4602 9.05901 19.921 9.55368C20.673 9.40439 21.3942 9.12841 22.0537 8.7375C21.8076 9.52087 21.2745 10.1812 20.5772 10.5995Z" fill="#FFFEFE"/>
</g>
<defs>
<clipPath id="clip0_2982_4178">
<rect width="28" height="28" fill="white" transform="translate(0 0.293457)"/>
</clipPath>
</defs>
</svg>
