<svg width="51" height="51" viewBox="0 0 51 51" fill="none" xmlns="http://www.w3.org/2000/svg">
<circle cx="25.8594" cy="25.7324" r="25" fill="url(#paint0_linear_2982_4248)"/>
<g clip-path="url(#clip0_2982_4248)">
<path d="M17.5427 37.4021H30.2924C32.5991 37.4021 34.4758 35.5393 34.4758 33.2497V27.5142C34.4758 26.9688 34.0298 26.5261 33.4803 26.5261C32.9309 26.5261 32.4849 26.9688 32.4849 27.5142V33.2479C32.4849 34.4467 31.5019 35.4224 30.2942 35.4224H17.5427C16.335 35.4224 15.352 34.4467 15.352 33.2479V20.594C15.352 19.3952 16.335 18.4195 17.5427 18.4195H26.8066C27.3561 18.4195 27.8021 17.9768 27.8021 17.4314C27.8021 16.8861 27.3561 16.4434 26.8066 16.4434H17.5427C15.2361 16.4416 13.3594 18.3044 13.3594 20.594V33.2497C13.3594 35.5393 15.2361 37.4021 17.5427 37.4021Z" fill="white"/>
<path d="M22.0386 23.8476C21.3197 23.0206 20.0602 22.9303 19.2289 23.644C18.3958 24.3576 18.3049 25.606 19.0238 26.4329L22.9823 30.9802C23.3605 31.4141 23.91 31.6655 24.4897 31.6655C25.0695 31.6655 25.619 31.4158 25.9972 30.9802L37.8746 17.3365C38.5935 16.5096 38.5025 15.2612 37.6694 14.5475C36.8363 13.8339 35.5787 13.9242 34.8597 14.7512L24.4897 26.6649L22.0386 23.8476Z" fill="white"/>
</g>
<defs>
<linearGradient id="paint0_linear_2982_4248" x1="25.8594" y1="-118.835" x2="43.1314" y2="75.2614" gradientUnits="userSpaceOnUse">
<stop stop-color="#7B70EC"/>
<stop offset="1" stop-color="#3722DA"/>
</linearGradient>
<clipPath id="clip0_2982_4248">
<rect width="25" height="23.3333" fill="white" transform="translate(13.3594 14.0664)"/>
</clipPath>
</defs>
</svg>
