<svg width="169" height="31" viewBox="0 0 169 31" fill="none" xmlns="http://www.w3.org/2000/svg">
<path d="M0.300781 10.2245C0.300781 9.44654 0.782954 8.73647 1.48291 8.48509L22.4072 0.984527C23.1552 0.715905 23.9325 1.30063 23.9325 2.1319V15.2799C23.9325 16.5583 23.1699 17.6992 22.0261 18.132L2.61527 25.4765C1.48851 25.9028 0.300781 25.0246 0.300781 23.7652V10.2245Z" fill="#3423D0"/>
<path d="M0.300781 13.2406L23.9325 4.37071V7.41866L0.300781 16.2885V13.2406Z" fill="#1E0B7C"/>
<path d="M0.300781 10.2245C0.300781 8.94616 1.5369 8.04163 2.64969 8.50822L8.89746 11.0311L15.1452 13.5539C15.9249 13.8687 16.4395 14.6563 16.4395 15.5347V28.7946C16.4395 30.304 14.9833 31.3307 13.6557 30.7573L1.373 25.4515C0.724317 25.1713 0.300781 24.5068 0.300781 23.7692V10.2245Z" fill="#472EFF" fill-opacity="0.6"/>
<path d="M0.300781 13.2406L23.9325 4.37071V7.41866L0.300781 16.2885V13.2406Z" fill="#1E0B7C"/>
<path d="M49.6335 16.4297L57.2257 24.8589H52.0439L47.0368 19.3231L42.0529 24.8589H36.8828L44.4633 16.4297L37.2554 8.43086H42.4372L47.0368 13.5721L51.6596 8.43086H56.8414L49.6335 16.4297Z" fill="white"/>
<path d="M60.0553 24.8589V8.43086H64.3754V24.8589H60.0553Z" fill="white"/>
<path d="M87.3731 14.0384C87.3731 14.8594 87.2567 15.6166 87.0238 16.3101C86.7909 16.9956 86.4144 17.5894 85.8943 18.0916C85.3819 18.5858 84.7143 18.9724 83.8914 19.2514C83.0686 19.5303 82.0672 19.6698 80.8872 19.6698H73.7142V24.8589H69.3941V8.43086H80.8872C82.0672 8.43086 83.0686 8.57035 83.8914 8.84934C84.7143 9.12035 85.3819 9.50693 85.8943 10.0091C86.4144 10.5033 86.7909 11.0931 87.0238 11.7786C87.2567 12.4641 87.3731 13.2174 87.3731 14.0384ZM83.0065 14.1101C83.0065 13.7275 82.9521 13.4007 82.8435 13.1297C82.7425 12.8507 82.5717 12.6236 82.3311 12.4482C82.0904 12.2728 81.776 12.1453 81.3879 12.0656C80.9997 11.9779 80.5223 11.9341 79.9556 11.9341H73.7142V16.1666H79.9556C80.5223 16.1666 80.9997 16.1347 81.3879 16.071C81.776 15.9992 82.0904 15.8837 82.3311 15.7242C82.5717 15.5568 82.7425 15.3416 82.8435 15.0786C82.9521 14.8156 83.0065 14.4927 83.0065 14.1101Z" fill="white"/>
<path d="M105.702 13.058C105.399 12.9065 104.999 12.7351 104.502 12.5438C104.005 12.3525 103.442 12.1732 102.814 12.0058C102.185 11.8305 101.502 11.687 100.764 11.5754C100.027 11.4558 99.2699 11.396 98.4936 11.396C97.8726 11.396 97.3408 11.416 96.8983 11.4558C96.4636 11.4957 96.0948 11.5475 95.7921 11.6113C95.4971 11.675 95.2603 11.7507 95.0818 11.8384C94.911 11.9181 94.779 12.0018 94.6859 12.0895C94.5927 12.1772 94.5306 12.2649 94.4995 12.3525C94.4763 12.4402 94.4646 12.5199 94.4646 12.5917C94.4646 12.8308 94.5811 13.042 94.8139 13.2254C95.0468 13.4007 95.3651 13.5601 95.7688 13.7036C96.1725 13.8391 96.6421 13.9706 97.1778 14.0982C97.7134 14.2177 98.2801 14.3453 98.8779 14.4808C99.4834 14.6083 100.104 14.7518 100.741 14.9112C101.385 15.0627 102.006 15.242 102.604 15.4492C103.21 15.6565 103.78 15.8996 104.316 16.1786C104.851 16.4496 105.321 16.7684 105.725 17.1351C106.128 17.5017 106.447 17.9242 106.68 18.4025C106.913 18.8807 107.029 19.4267 107.029 20.0405C107.029 20.8296 106.893 21.5071 106.621 22.0731C106.35 22.639 105.985 23.1173 105.527 23.5078C105.077 23.8984 104.553 24.2132 103.955 24.4524C103.357 24.6835 102.728 24.8629 102.068 24.9904C101.416 25.1179 100.753 25.2016 100.077 25.2415C99.4096 25.2814 98.7731 25.3013 98.1675 25.3013C96.5839 25.3013 95.1167 25.1658 93.7659 24.8948C92.423 24.6317 91.2352 24.3009 90.2027 23.9024V19.9807C91.2663 20.5865 92.4773 21.0608 93.8358 21.4035C95.2021 21.7463 96.6615 21.9176 98.2141 21.9176C99.1302 21.9176 99.8754 21.8698 100.45 21.7742C101.032 21.6705 101.486 21.543 101.812 21.3916C102.138 21.2321 102.36 21.0608 102.476 20.8774C102.592 20.6941 102.651 20.5187 102.651 20.3513C102.651 20.0883 102.534 19.8611 102.301 19.6698C102.068 19.4706 101.75 19.2992 101.346 19.1557C100.943 19.0043 100.473 18.8688 99.9375 18.7492C99.4019 18.6217 98.8313 18.4981 98.2258 18.3785C97.628 18.251 97.0109 18.1155 96.3743 17.972C95.7377 17.8286 95.1167 17.6612 94.5112 17.4699C93.9134 17.2706 93.3467 17.0434 92.8111 16.7884C92.2755 16.5253 91.8058 16.2184 91.4021 15.8677C90.9984 15.509 90.6802 15.0985 90.4473 14.6362C90.2144 14.1659 90.0979 13.6239 90.0979 13.0101C90.0979 12.2848 90.2221 11.6591 90.4706 11.133C90.719 10.6069 91.0528 10.1605 91.472 9.79389C91.899 9.41925 92.388 9.11636 92.9392 8.8852C93.4981 8.65405 94.0842 8.4747 94.6975 8.34717C95.3108 8.21963 95.9318 8.13195 96.5606 8.08413C97.1894 8.0363 97.7872 8.01239 98.3539 8.01239C98.9749 8.01239 99.6115 8.04427 100.264 8.10804C100.923 8.17181 101.572 8.26347 102.208 8.38304C102.845 8.49463 103.458 8.62615 104.048 8.7776C104.646 8.92904 105.197 9.08846 105.702 9.25585V13.058Z" fill="white"/>
<path d="M120.094 12.0058V24.8589H115.774V12.0058H108.985V8.43086H126.894V12.0058H120.094Z" fill="white"/>
<path d="M147.598 24.0459C146.286 24.4922 144.974 24.8111 143.662 25.0024C142.358 25.2016 141.023 25.3013 139.657 25.3013C137.91 25.3013 136.354 25.11 134.987 24.7274C133.629 24.3368 132.484 23.7748 131.552 23.0415C130.621 22.3082 129.91 21.4115 129.421 20.3513C128.932 19.2912 128.688 18.0916 128.688 16.7525C128.688 15.509 128.932 14.3572 129.421 13.2971C129.918 12.229 130.617 11.3044 131.517 10.5232C132.426 9.7341 133.52 9.12035 134.801 8.68195C136.082 8.23558 137.51 8.01239 139.086 8.01239C140.538 8.01239 141.865 8.21565 143.069 8.62216C144.28 9.02071 145.316 9.61454 146.178 10.4037C147.047 11.1928 147.719 12.1652 148.192 13.321C148.673 14.4768 148.914 15.8079 148.914 17.3144V18.4144H133.147C133.287 18.9325 133.516 19.4068 133.834 19.8372C134.161 20.2677 134.599 20.6343 135.15 20.9372C135.701 21.2401 136.377 21.4752 137.176 21.6426C137.984 21.81 138.946 21.8937 140.064 21.8937C140.856 21.8937 141.632 21.8459 142.393 21.7502C143.154 21.6466 143.864 21.5151 144.524 21.3557C145.184 21.1883 145.778 21.005 146.306 20.8057C146.841 20.6064 147.272 20.4071 147.598 20.2079V24.0459ZM144.617 15.1623C144.578 14.7558 144.458 14.3373 144.256 13.9069C144.062 13.4685 143.752 13.0739 143.325 12.7232C142.898 12.3725 142.339 12.0855 141.648 11.8623C140.957 11.6312 140.095 11.5156 139.063 11.5156C138.092 11.5156 137.254 11.6392 136.548 11.8862C135.841 12.1333 135.247 12.4402 134.766 12.8069C134.293 13.1735 133.924 13.5681 133.66 13.9906C133.396 14.413 133.225 14.8036 133.147 15.1623H144.617Z" fill="white"/>
<path d="M167.557 12.1493C167.44 12.1094 167.27 12.0576 167.044 11.9939C166.827 11.9221 166.571 11.8544 166.276 11.7906C165.981 11.7189 165.655 11.6591 165.298 11.6113C164.948 11.5634 164.587 11.5395 164.215 11.5395C163.439 11.5395 162.713 11.6392 162.037 11.8384C161.37 12.0297 160.745 12.2888 160.163 12.6156C159.58 12.9344 159.037 13.3011 158.532 13.7156C158.036 14.1221 157.578 14.5406 157.158 14.971V24.8589H152.838V8.43086H157.158V11.0971C157.678 10.6986 158.21 10.316 158.754 9.94932C159.305 9.57469 159.875 9.24389 160.465 8.95694C161.063 8.66999 161.692 8.44282 162.352 8.27543C163.012 8.10007 163.71 8.01239 164.448 8.01239C164.727 8.01239 165.011 8.02833 165.298 8.06022C165.593 8.08413 165.876 8.11601 166.148 8.15587C166.427 8.19572 166.687 8.23956 166.928 8.28739C167.169 8.33521 167.378 8.38304 167.557 8.43086V12.1493Z" fill="white"/>
</svg>
