<svg width="61" height="61" viewBox="0 0 61 61" fill="none" xmlns="http://www.w3.org/2000/svg">
<path fill-rule="evenodd" clip-rule="evenodd" d="M8.22266 14.1346C8.22266 12.9719 9.16521 12.0293 10.3279 12.0293H29.4285C30.5912 12.0293 31.5337 12.9719 31.5337 14.1346V53.4496C31.5337 54.6123 30.5912 55.5548 29.4285 55.5548H25.6583V47.6327C25.6583 47.0514 25.187 46.5801 24.6057 46.5801H15.1073C14.526 46.5801 14.0547 47.0514 14.0547 47.6327V55.5548H10.3279C9.16522 55.5548 8.22266 54.6123 8.22266 53.4496V14.1346ZM24.0794 48.159V55.5548H20.45V48.159H24.0794ZM18.8711 48.159V55.5548H15.6336V48.159H18.8711ZM11.1816 17.9722C11.1816 17.5362 11.5351 17.1828 11.9711 17.1828H27.7822C28.2182 17.1828 28.5716 17.5362 28.5716 17.9722C28.5716 18.4083 28.2182 18.7617 27.7822 18.7617H11.9711C11.5351 18.7617 11.1816 18.4083 11.1816 17.9722ZM11.9711 24.1144C11.5351 24.1144 11.1816 24.4679 11.1816 24.9039C11.1816 25.3399 11.5351 25.6934 11.9711 25.6934H27.7822C28.2182 25.6934 28.5716 25.3399 28.5716 24.9039C28.5716 24.4679 28.2182 24.1144 27.7822 24.1144H11.9711ZM11.1816 31.9548C11.1816 31.5187 11.5351 31.1653 11.9711 31.1653H27.7822C28.2182 31.1653 28.5716 31.5187 28.5716 31.9548C28.5716 32.3908 28.2182 32.7442 27.7822 32.7442H11.9711C11.5351 32.7442 11.1816 32.3908 11.1816 31.9548ZM11.9711 38.1574C11.5351 38.1574 11.1816 38.5108 11.1816 38.9469C11.1816 39.3829 11.5351 39.7363 11.9711 39.7363H27.7822C28.2182 39.7363 28.5716 39.3829 28.5716 38.9469C28.5716 38.5108 28.2182 38.1574 27.7822 38.1574H11.9711Z" fill="#232426"/>
<path fill-rule="evenodd" clip-rule="evenodd" d="M19.9379 1.28516C19.3293 1.28516 18.8359 1.77853 18.8359 2.38713V6.35618C18.8359 6.96479 19.3293 7.45816 19.9379 7.45816C20.5465 7.45816 21.0399 6.96479 21.0399 6.35618V2.38713C21.0399 1.77853 20.5465 1.28516 19.9379 1.28516ZM13.8085 7.98828C13.2271 7.98828 12.7559 8.45956 12.7559 9.04091V9.8974C12.7559 10.4787 13.2271 10.95 13.8085 10.95H25.9487C26.5301 10.95 27.0013 10.4787 27.0013 9.8974V9.04091C27.0013 8.45956 26.5301 7.98828 25.9487 7.98828H13.8085Z" fill="#232426"/>
<path fill-rule="evenodd" clip-rule="evenodd" d="M39.3826 12.7365C39.3826 12.3459 39.6992 12.0293 40.0898 12.0293C40.4804 12.0293 40.7971 12.3459 40.7971 12.7365V16.2729C40.7971 16.6635 40.4804 16.9801 40.0898 16.9801C39.6992 16.9801 39.3826 16.6635 39.3826 16.2729V12.7365ZM32.5703 22.752C32.5703 21.5893 33.5129 20.6467 34.6756 20.6467H45.426C46.5887 20.6467 47.5312 21.5893 47.5312 22.752V39.4053C46.8671 39.2663 46.1786 39.1931 45.4731 39.1931C39.9542 39.1931 35.4803 43.6671 35.4803 49.1859C35.4803 51.6063 36.3408 53.8256 37.7725 55.5548H34.6756C33.5129 55.5548 32.5703 54.6122 32.5703 53.4495V22.752ZM34.4718 25.2568C34.4718 24.8208 34.8253 24.4673 35.2613 24.4673H44.8432C45.2792 24.4673 45.6327 24.8208 45.6327 25.2568C45.6327 25.6928 45.2792 26.0463 44.8432 26.0463H35.2613C34.8253 26.0463 34.4718 25.6928 34.4718 25.2568ZM35.2613 30.0272C34.8253 30.0272 34.4718 30.3807 34.4718 30.8167C34.4718 31.2527 34.8253 31.6062 35.2613 31.6062H44.8432C45.2792 31.6062 45.6327 31.2527 45.6327 30.8167C45.6327 30.3807 45.2792 30.0272 44.8432 30.0272H35.2613ZM34.4718 36.4709C34.4718 36.0349 34.8253 35.6814 35.2613 35.6814H44.8432C45.2792 35.6814 45.6327 36.0349 45.6327 36.4709C45.6327 36.9069 45.2792 37.2604 44.8432 37.2604H35.2613C34.8253 37.2604 34.4718 36.9069 34.4718 36.4709ZM36.5331 17.4045C35.9517 17.4045 35.4805 17.8758 35.4805 18.4572V18.7273C35.4805 19.3086 35.9517 19.7799 36.5331 19.7799H43.5705C44.1519 19.7799 44.6232 19.3086 44.6232 18.7273V18.4572C44.6232 17.8758 44.1519 17.4045 43.5705 17.4045H36.5331Z" fill="#232426"/>
<circle cx="46.3608" cy="49.6733" r="8.56072" fill="white" stroke="#232426" stroke-width="1.38931"/>
<path d="M45.7972 53.15L46.4238 53.1602V54.8243H45.7972V53.15ZM45.8691 53.0164V47.0586L46.3519 46.9765V53.037L45.8691 53.0164ZM45.7972 45.3021H46.4238V46.884L45.7972 46.9662V45.3021ZM48.0776 48.0961C48.0159 48.0208 47.9166 47.942 47.7797 47.8599C47.6496 47.7708 47.4955 47.6886 47.3174 47.6133C47.1462 47.538 46.9579 47.4764 46.7525 47.4284C46.547 47.3805 46.3348 47.3565 46.1156 47.3565C45.6363 47.3565 45.2802 47.4455 45.0473 47.6236C44.8145 47.8016 44.6981 48.0482 44.6981 48.3632C44.6981 48.596 44.7631 48.7809 44.8932 48.9179C45.0234 49.048 45.2219 49.1576 45.489 49.2466C45.7561 49.3356 46.0916 49.4315 46.4957 49.5342C46.9887 49.6506 47.4167 49.791 47.7797 49.9553C48.1426 50.1129 48.42 50.3251 48.6117 50.5922C48.8035 50.8593 48.8993 51.212 48.8993 51.6502C48.8993 52.02 48.8309 52.3385 48.6939 52.6055C48.5569 52.8726 48.3652 53.0917 48.1187 53.2629C47.8721 53.4273 47.5879 53.5506 47.2661 53.6327C46.9442 53.7081 46.5984 53.7457 46.2286 53.7457C45.8588 53.7457 45.4959 53.7081 45.1398 53.6327C44.7837 53.5574 44.4413 53.4478 44.1126 53.304C43.7907 53.1534 43.4894 52.9719 43.2086 52.7596L43.7428 51.7735C43.8318 51.8625 43.9585 51.9618 44.1228 52.0714C44.2872 52.1741 44.4824 52.2734 44.7083 52.3693C44.9343 52.4652 45.1774 52.5473 45.4377 52.6158C45.7047 52.6774 45.9752 52.7083 46.2491 52.7083C46.7011 52.7083 47.0504 52.6295 47.2969 52.472C47.5434 52.3076 47.6667 52.0748 47.6667 51.7735C47.6667 51.527 47.5845 51.3318 47.4202 51.188C47.2627 51.0373 47.0332 50.9106 46.7319 50.8079C46.4375 50.7052 46.0814 50.6025 45.6636 50.4998C45.1843 50.3697 44.7837 50.2293 44.4618 50.0786C44.14 49.9211 43.8969 49.7225 43.7325 49.4828C43.575 49.2363 43.4962 48.9247 43.4962 48.5481C43.4962 48.0687 43.6127 47.6647 43.8455 47.336C44.0783 47.0004 44.3933 46.7505 44.7905 46.5861C45.1946 46.4149 45.6431 46.3293 46.1362 46.3293C46.4717 46.3293 46.7867 46.367 47.0812 46.4423C47.3757 46.5108 47.6496 46.6067 47.9029 46.7299C48.1632 46.8532 48.396 46.9936 48.6014 47.1511L48.0776 48.0961Z" fill="#232426"/>
</svg>
