<svg width="61" height="61" viewBox="0 0 61 61" fill="none" xmlns="http://www.w3.org/2000/svg">
<g clip-path="url(#clip0_2982_3818)">
<rect x="21.6484" y="34.8284" width="38.354" height="5.49434" fill="#232426"/>
<rect x="22.0316" y="26.1469" width="37.4125" height="27.3127" rx="4.2" stroke="#232426" stroke-width="1.2"/>
<path fill-rule="evenodd" clip-rule="evenodd" d="M1.69904 31.66C0.76178 30.7228 0.761779 29.2032 1.69904 28.2659L22.8571 7.10785C23.7944 6.17059 25.314 6.17059 26.2512 7.10785L40.0342 20.8908C40.6951 21.5518 40.89 22.5023 40.6187 23.334H24.3039C21.6529 23.334 19.5039 25.4831 19.5039 28.134V44.8152L18.8761 45.443C17.9389 46.3803 16.4193 46.3803 15.482 45.443L1.69904 31.66ZM22.836 18.0958L27.9696 12.9622L31.3637 16.3564L26.2301 21.49L22.836 18.0958Z" fill="#232426"/>
</g>
<defs>
<clipPath id="clip0_2982_3818">
<rect width="60" height="60" fill="white" transform="translate(0.519531 0.232422)"/>
</clipPath>
</defs>
</svg>
