<svg width="61" height="61" viewBox="0 0 61 61" fill="none" xmlns="http://www.w3.org/2000/svg">
<path d="M49.5354 47.2378L49.5318 47.2749V47.3123L41.5682 38.6396C40.5223 37.5007 39.0469 36.8524 37.5007 36.8524L18.4341 36.8524C15.7791 36.8524 13.6269 34.7001 13.6269 32.0452V10.0493C13.6269 7.39437 15.7791 5.24214 18.4341 5.24214H52.1763C54.8312 5.24214 56.9834 7.39438 56.9834 10.0493V32.0452C56.9834 34.7001 54.8312 36.8524 52.1763 36.8524H51.2414H50.5373L50.4697 37.5533L49.5354 47.2378Z" stroke="#232426" stroke-width="1.55069"/>
<line x1="21.2422" y1="14.5157" x2="48.3709" y2="14.5157" stroke="#232426" stroke-width="1.55069"/>
<line x1="21.2422" y1="20.7184" x2="48.3709" y2="20.7184" stroke="#232426" stroke-width="1.55069"/>
<line x1="21.2422" y1="26.9212" x2="48.3709" y2="26.9212" stroke="#232426" stroke-width="1.55069"/>
<path d="M10.8425 12.4727V33.6875C10.8425 36.7706 13.3419 39.27 16.425 39.27H36.429C37.7492 39.27 39.0098 39.8198 39.908 40.7873L44.1941 45.4044C43.6907 45.5535 43.1577 45.6336 42.606 45.6336H20.5316L11.1422 55.7481C10.6627 56.2646 9.79861 55.9253 9.79861 55.2205V45.6336H8.86375C5.78062 45.6336 3.28125 43.1342 3.28125 40.0511V18.0552C3.28125 14.972 5.78062 12.4727 8.86375 12.4727H10.8425Z" fill="#232426"/>
</svg>
