<svg width="296" height="374" viewBox="0 0 296 374" fill="none" xmlns="http://www.w3.org/2000/svg">
<g opacity="0.2">
<path d="M1.77818 200.171C-1.81974 189.977 1.39598 178.811 8.13318 173.567L218.892 4.0029C226.53 -2.08042 237.887 1.28501 241.177 10.6068L293.213 158.045C298.273 172.381 294.691 188.78 283.098 198.329L86.1498 358.119C72.6754 368.607 60.2444 365.829 54.3978 349.263L1.77818 200.171Z" fill="#A9A9A9"/>
<path d="M34.1595 291.92L271.886 97.6168L283.949 131.796L46.3025 326.326L34.1595 291.92Z" fill="#4838E4"/>
<path d="M1.77818 200.171C-2.71922 187.428 2.96562 171.091 18.8185 169.494L184.155 174.77C194.472 175.099 203.575 181.817 207.052 191.667L259.531 340.362C265.505 357.288 252.627 374.78 234.913 373.8L71.0226 364.734C62.3672 364.255 56.9242 356.421 54.3978 349.263L1.77818 200.171Z" fill="white" fill-opacity="0.6"/>
</g>
</svg>
