<svg width="28" height="28" viewBox="0 0 28 28" fill="none" xmlns="http://www.w3.org/2000/svg">
<g clip-path="url(#clip0_2982_3624)">
<path d="M13.9043 -0.0440674C11.1354 -0.0440674 8.42861 0.777018 6.12632 2.31536C3.82403 3.8537 2.02962 6.0402 0.96999 8.59836C-0.0896371 11.1565 -0.366884 13.9715 0.173309 16.6872C0.713502 19.4029 2.04687 21.8975 4.00481 23.8554C5.96274 25.8134 8.4573 27.1467 11.173 27.6869C13.8888 28.2271 16.7037 27.9499 19.2619 26.8902C21.82 25.8306 24.0065 24.0362 25.5449 21.7339C27.0832 19.4316 27.9043 16.7249 27.9043 13.9559C27.9043 10.2429 26.4293 6.68195 23.8038 4.05644C21.1783 1.43093 17.6173 -0.0440674 13.9043 -0.0440674ZM24.1471 21.4443C23.2187 20.9 22.2368 20.4527 21.2169 20.1094C21.7037 18.3143 21.9705 16.4666 22.0113 14.6071H26.5694C26.4487 17.0741 25.6064 19.4515 24.1471 21.4443ZM1.22291 14.6071H5.79733C5.83683 16.4676 6.1025 18.3164 6.58849 20.1127C5.56855 20.456 4.58664 20.9033 3.65826 21.4476C2.19369 19.4553 1.34682 17.0766 1.22291 14.6071ZM3.66151 6.46756C4.58989 7.01184 5.57181 7.45915 6.59175 7.80244C6.10492 9.59758 5.83816 11.4452 5.79733 13.3048H1.23919C1.35993 10.8377 2.20219 8.46037 3.66151 6.46756ZM14.5555 8.94849C16.3752 8.90601 18.1837 8.65031 19.9438 8.18663C20.4069 9.85504 20.6638 11.5739 20.709 13.3048H14.5555V8.94849ZM14.5555 7.64616V1.32012C16.6066 1.7043 18.4266 3.86291 19.5466 6.94617C17.9155 7.37127 16.2406 7.60617 14.5555 7.64616ZM13.2531 1.32012V7.64616C11.568 7.60617 9.89312 7.37127 8.26198 6.94617C9.38198 3.86291 11.202 1.7043 13.2531 1.32012ZM13.2531 8.94849V13.3048H7.09965C7.14478 11.5739 7.40173 9.85504 7.86477 8.18663C9.62494 8.65031 11.4334 8.90601 13.2531 8.94849ZM7.09965 14.6071H13.2531V18.9634C11.4334 19.0059 9.62494 19.2616 7.86477 19.7252C7.40173 18.0568 7.14478 16.338 7.09965 14.6071ZM13.2531 20.2657V26.5917C11.202 26.2076 9.38198 24.049 8.26198 20.9657C9.89312 20.5406 11.568 20.3057 13.2531 20.2657ZM14.5555 26.5917V20.2657C16.2406 20.3057 17.9155 20.5406 19.5466 20.9657C18.4266 24.049 16.6066 26.2076 14.5555 26.5917ZM14.5555 18.9634V14.6071H20.709C20.6638 16.338 20.4069 18.0568 19.9438 19.7252C18.1837 19.2616 16.3752 19.0059 14.5555 18.9634ZM22.0113 13.3048C21.9718 11.4443 21.7061 9.59551 21.2201 7.79919C22.2401 7.4559 23.222 7.00858 24.1504 6.46431C25.6207 8.45468 26.4733 10.8335 26.602 13.3048H22.0113ZM23.3136 5.44198C22.5217 5.89215 21.6888 6.26608 20.8262 6.55872C20.2699 4.87273 19.3697 3.32059 18.1824 2.00058C20.1509 2.70801 21.9145 3.89005 23.3169 5.44198H23.3136ZM9.62291 2.00384C8.43566 3.32385 7.53542 4.87599 6.97919 6.56198C6.11655 6.26933 5.28366 5.89541 4.49174 5.44524C5.89324 3.89375 7.65563 2.71174 9.62291 2.00384ZM4.49174 22.4699C5.28366 22.0197 6.11655 21.6458 6.97919 21.3531C7.53542 23.0391 8.43566 24.5913 9.62291 25.9113C7.65563 25.2034 5.89324 24.0214 4.49174 22.4699ZM18.1857 25.908C19.3729 24.588 20.2732 23.0359 20.8294 21.3499C21.6921 21.6425 22.5249 22.0165 23.3169 22.4666C21.9154 24.0181 20.153 25.2001 18.1857 25.908Z" fill="white"/>
</g>
<defs>
<clipPath id="clip0_2982_3624">
<rect width="28" height="28" fill="white"/>
</clipPath>
</defs>
</svg>
